<?xml version="1.0" standalone="no"?>
<!DOCTYPE svg PUBLIC "-//W3C//DTD SVG 20010904//EN"
 "http://www.w3.org/TR/2001/REC-SVG-20010904/DTD/svg10.dtd">
<svg version="1.0" xmlns="http://www.w3.org/2000/svg"
 width="700.000000pt" height="700.000000pt" viewBox="0 0 700.000000 700.000000"
 preserveAspectRatio="xMidYMid meet">
<metadata>
Created by potrace 1.14, written by Peter Selinger 2001-2017
</metadata>
<g transform="translate(0.000000,700.000000) scale(0.100000,-0.100000)"
fill="#000000" stroke="none">
<path d="M3417 6124 c-1 -1 -39 -4 -84 -8 -688 -53 -1245 -531 -1399 -1201
-23 -101 -22 -210 4 -267 61 -139 219 -199 362 -137 94 40 149 127 165 258 10
87 58 214 119 316 131 219 338 381 566 444 135 37 205 45 375 45 268 1 411
-32 583 -132 222 -131 368 -315 415 -524 22 -97 15 -300 -12 -396 -75 -260
-204 -404 -646 -717 -355 -251 -503 -407 -624 -657 -40 -82 -84 -211 -95 -280
-3 -18 -8 -44 -11 -58 -18 -89 -22 -259 -6 -318 36 -131 185 -218 321 -187
133 29 205 128 215 291 7 123 13 159 37 234 47 148 153 284 322 414 64 50 73
56 211 153 278 195 462 361 589 533 60 81 166 284 191 365 71 234 88 457 51
695 -15 102 -81 290 -133 380 -81 141 -202 283 -330 392 -170 144 -457 286
-652 323 -131 25 -263 37 -419 39 -62 1 -114 1 -115 0z"/>
<path d="M3268 1950 c-76 -23 -133 -58 -187 -113 -127 -129 -162 -313 -90
-481 23 -54 25 -56 88 -127 49 -55 156 -114 231 -127 216 -40 421 83 496 295
26 77 26 199 0 273 -82 224 -318 347 -538 280z"/>
</g>
</svg>
